# xmcd
#
# Track frame offsets: 
#        150
#        16821
#        34345
#        61240
#        79932
#        92669
#        112796
#        136259
#        159253
#        176662
#        193805
#
# Disc length: 2889 seconds
#
# Revision: 0
# Processed by: cddbd v1.5.2PL0 Copyright (c) Steve Scherf et al.
# Submitted via: ExactAudioCopy v0.95b4
#
DISCID=830b470b
DTITLE=Keith Gattis - Keith Gattis
DYEAR=2005
DGENRE=Country
TTITLE0=Big City Blues
TTITLE1=Reconsider
TTITLE2=El Cerrito Place
TTITLE3=Same to Me
TTITLE4=Wish I Had You
TTITLE5=Down Again
TTITLE6=Don't Lie
TTITLE7=The Bottom
TTITLE8=California
TTITLE9=Hard On Me
TTITLE10=Somebody Told Me
EXTD=
EXTT0=
EXTT1=
EXTT2=
EXTT3=
EXTT4=
EXTT5=
EXTT6=
EXTT7=
EXTT8=
EXTT9=
EXTT10=
PLAYORDER=
